<svg version="1.1" xmlns="http://www.w3.org/2000/svg" xmlns:xlink="http://www.w3.org/1999/xlink" x="0px" y="0px"
     width="1000px" height="1000px" viewBox="0 0 1000 1000" enable-background="new 0 0 1000 1000" xml:space="preserve">
    <path fill-rule="evenodd" clip-rule="evenodd" d="M387.273,318.427c-24.886,8.352-57.601,49.199-79.439,77.621
        c-23.69,30.829-47.38,82.2-79.438,80.297c-26.283-1.549-46.623-33.304-43.575-61.557c3.047-28.169,30.257-37.093,33.321-56.203
        C154.328,372.627,90.8,412.464,49.01,462.959c-28.186,34.063-73.023,118.956-33.321,173.963
        c44.804,62.098,228.197,48.189,351.076,48.189c144.212,0,300.21,0.809,407.448,2.678c38.911,0.672,94.845,3.688,130.691,0
        c65.633-6.787,115.05-75.617,87.134-147.21c-12.241-31.352-42.936-47.785-69.185-74.926c-39.215,3.064-76.206,69.672-112.76,69.572
        c-29.785-0.067-52.382-25.997-48.694-58.88c4.748-42.261,56.17-48.424,76.88-80.297c-49.906-36.116-103.836,7.627-143.505,48.188
        c-28.203,28.825-116.784,126.819-130.692,40.141c-13.537-84.389,77.436-113.383,107.625-155.224
        c-12.156-3.368-26.637-4.293-38.423-8.032c-40.09,24.212-75.836,33.069-112.76,66.912
        c-25.391,23.235-68.191,108.651-107.625,109.729c-26.384,0.708-51.405-25.07-51.253-53.525
        c0.202-42.43,96.023-108.635,97.371-133.824C437.785,317.99,408.656,311.271,387.273,318.427z"/>
</svg>