<svg version="1.1" xmlns="http://www.w3.org/2000/svg" xmlns:xlink="http://www.w3.org/1999/xlink" x="0px" y="0px"
     width="1000px" height="1000px" viewBox="0 0 1000 1000" enable-background="new 0 0 1000 1000" xml:space="preserve">
    <path fill-rule="evenodd" clip-rule="evenodd" d="M876.669,598.186c-203.68,79.196-554.465,82.353-763.607,6.949
        c-0.125,21.826-6.734,37.066-6.859,58.893C60.189,685.944,2.331,705.249,0.059,757.577
        c-3.157,72.814,120.998,115.854,198.604,135.136c177.391,44.106,428.312,42.063,602.647,0
        c77.039-18.579,201.591-59.392,198.638-135.136c-2.339-59.505-69.815-70.656-109.607-100.478
        C886.571,636.682,883.573,615.469,876.669,598.186z"/>
    <g>
        <g>
            <path fill-rule="evenodd" clip-rule="evenodd" d="M595.858,300.917C561.973,263.511,571.034,346,595.858,300.917L595.858,300.917z
                 M318.513,307.844c-19.907,42.812,47.332,34.681,34.238,3.475c129.537-6.223,276.471-27.209,349.263-90.098
                c20.44-17.647,41.608-45.583,37.679-76.221c-13.877-17.147-34.84-25.028-58.21-27.731
                c-144.039-16.67-360.517,42.971-407.485,107.427c-9.789,13.423-16.432,34.84-13.695,55.417
                C274.929,294.195,291.906,305.891,318.513,307.844z M462.324,349.43C527.224,391.583,481.152,269.802,462.324,349.43
                L462.324,349.43z M804.762,103.415c0.728-3.884,3.793-5.405,6.837-6.927c3.384-21.349-13.695-23.847-23.961-13.877
                C786.956,95.988,793.065,102.529,804.762,103.415z M746.529,228.148c9.356,2.521,6.904-6.881,13.718-6.927
                C763.427,180.613,716.776,213.908,746.529,228.148z M910.917,68.779c3.226,10.584,16.648,10.856,17.103,24.234
                C871.354,155.38,805.943,239.141,715.731,293.99c-84.374,51.283-195.367,102.953-304.77,110.879
                c-122.485,8.88-231.888-34.727-291.064-93.55c-16.761-16.67-20.384-41.994-41.086-51.987
                c6.95,48.126,51.215,86.487,92.449,114.354c69.953,47.264,164.434,69.521,270.521,58.915
                C667.81,410.002,852.593,280.658,951.98,141.525c5.678,0.068,1.931,9.607,6.858,10.402
                C959.975,111.25,922.228,73.799,910.917,68.779z M818.435,318.247c-31.524,34.522-4.179,119.328-51.352,124.733
                c-43.198,4.974-43.13-53.623-85.601-58.892c-17.852,49.171-17.171,137.475-85.624,107.405
                c-26.913-11.833-19.169-56.394-54.781-65.842c-31.059,22.894-22.894,75.517-58.21,86.646
                c-47.423,14.922-64.241-48.104-102.726-69.317c-15.444,30.797-17.102,71.452-51.363,72.769
                c-47.138,1.816-40.756-63.139-75.324-86.623c-23.427,16.057-14.695,51.76-44.515,55.439
                c-44.039,5.428-50.682-50.375-51.375-103.952c-18.839,10.97-16.602,43.266-41.085,48.513v83.171
                c213.775,70.065,553.283,47.263,749.899-20.804c-3.61-52.283-2.906-106.792,13.695-159.392
                C861.769,326.854,843.781,305.096,818.435,318.247z M229.482,314.794c14.922-22.099-25.698-36.339-20.542-3.475
                C212.982,315.294,221.033,315.249,229.482,314.794z M250.025,193.513c-12.81-14.922-41.994-5.996-34.238,20.781
                C227.949,228.535,259.132,221.653,250.025,193.513z"/>
        </g>
    </g>
    <path fill-rule="evenodd" clip-rule="evenodd" fill="#FFFFFF" d="M119.897,713.251c-4.531,18.328-30.218,9.925-41.086,13.877
        C70,796.785,151.558,828.877,215.787,848.387c154.179,46.877,389.746,48.558,558.132,3.475
        c71.884-19.236,166.297-46.809,157.53-128.208c-12.787-14.014-51.466-5.02-34.25-45.038c42.153,13.945,72.042,40.291,68.499,100.478
        c-118.42,162.89-681.094,170.316-876.609,55.462c-24.313-14.285-57.029-46.286-58.21-72.791
        C28.925,718.202,106.043,641.391,119.897,713.251z"/>
    <path fill-rule="evenodd" clip-rule="evenodd" fill="#FFFFFF" d="M893.793,730.58c-14.49,20.123-48.331,3.543-34.25-24.233
        C877.871,696.513,898.153,700.487,893.793,730.58z"/>
    <path fill-rule="evenodd" clip-rule="evenodd" fill="#FFFFFF" d="M123.327,758.312c-21.656-17.942-5.576-46.083,13.695-45.061
        C162.369,714.613,169.478,765.942,123.327,758.312z"/>
    <path fill-rule="evenodd" clip-rule="evenodd" fill="#FFFFFF" d="M856.113,737.508c-0.158,16.034-9.721,22.507-27.391,20.804
        C800.992,740.414,844.099,704.62,856.113,737.508z"/>
    <path fill-rule="evenodd" clip-rule="evenodd" fill="#FFFFFF" d="M154.147,751.385c4.622-3.407,6.848-9.267,10.277-13.877
        c6.836,0,13.695,0,20.543,0C212.017,768.44,156.679,791.448,154.147,751.385z"/>
    
    <path fill-rule="evenodd" clip-rule="evenodd" fill="#FFFFFF" d="M811.599,744.435c16.193,29.548-32.092,37.974-30.82,6.95
        C785.934,741.459,799.834,738.348,811.599,744.435z"/>
    <path fill-rule="evenodd" clip-rule="evenodd" fill="#FFFFFF" d="M229.482,744.435c17.863,15.194,9.187,42.039-6.848,45.061
        C192.132,795.241,178.392,736.917,229.482,744.435z"/>
    <path fill-rule="evenodd" clip-rule="evenodd" fill="#FFFFFF" d="M780.778,765.238c0.159,10.562-7.223,13.469-10.266,20.781
        c-16.33,2.681-22.575-4.883-27.391-13.854C741.669,747.887,775.305,745.524,780.778,765.238z"/>
    <path fill-rule="evenodd" clip-rule="evenodd" fill="#FFFFFF" d="M277.416,789.495c-14.899,4.86-21.667,8.357-34.238,0
        C231.197,743.73,295.392,755.2,277.416,789.495z"/>
    <path fill-rule="evenodd" clip-rule="evenodd" fill="#FFFFFF" d="M729.404,761.764c3.906,7.608,8.857,14.172,6.858,27.731
        c-5.519,7.108-17.17,8.017-30.797,6.927C694.519,781.205,700.719,755.745,729.404,761.764z"/>
    <path fill-rule="evenodd" clip-rule="evenodd" fill="#FFFFFF" d="M321.931,792.947c-6.019,9.425-28.219,9.425-34.238,0
        C279.834,757.471,329.789,757.471,321.931,792.947z"/>
    <path fill-rule="evenodd" clip-rule="evenodd" fill="#FFFFFF" d="M695.178,796.422c-5.542,5.95-14.332,8.607-27.414,6.927
        C642.35,776.526,701.9,748.613,695.178,796.422z"/>
    <path fill-rule="evenodd" clip-rule="evenodd" fill="#FFFFFF" d="M363.028,779.093c0,8.085,0,16.171,0,24.256
        c-9.63,4.815-19.691,9.153-30.82,3.476C316.4,781.932,345.12,761.128,363.028,779.093z"/>
    <path fill-rule="evenodd" clip-rule="evenodd" fill="#FFFFFF" d="M650.662,775.618c3.884,7.631,8.835,14.172,6.836,27.73
        C631.539,838.075,595.041,766.987,650.662,775.618z"/>
    <path fill-rule="evenodd" clip-rule="evenodd" fill="#FFFFFF" d="M404.114,782.567c11.867,22.395-13.945,39.405-30.82,24.257
        C365.674,781.772,387.364,771.848,404.114,782.567z"/>
    <path fill-rule="evenodd" clip-rule="evenodd" fill="#FFFFFF" d="M606.146,779.093c7.019,5.587,7.927,17.374,6.837,31.184
        C584.071,840.506,558.611,770.371,606.146,779.093z"/>
    <path fill-rule="evenodd" clip-rule="evenodd" fill="#FFFFFF" d="M448.629,789.495c4.122,25.937-11.913,34.567-30.82,27.708
        C400.65,793.628,432.015,768.781,448.629,789.495z"/>
    <path fill-rule="evenodd" clip-rule="evenodd" fill="#FFFFFF" d="M489.726,806.824c-4.486,11.333-26.8,14.422-34.25,3.452
        C446.312,775.595,495.313,774.459,489.726,806.824z"/>
    <path fill-rule="evenodd" clip-rule="evenodd" fill="#FFFFFF" d="M534.241,789.495c3.066,20.44-5.155,29.435-20.555,31.183
        C482.946,811.162,510.2,762.104,534.241,789.495z"/>
    <path fill-rule="evenodd" clip-rule="evenodd" fill="#FFFFFF" d="M571.92,789.495c3.589,22.121-5.541,31.364-27.413,27.708
        C526.814,797.875,552.093,769.939,571.92,789.495z"/>
</svg>