<svg version="1.1" xmlns="http://www.w3.org/2000/svg" xmlns:xlink="http://www.w3.org/1999/xlink" x="0px" y="0px"
	 viewBox="0 0 499.399 499.399" style="enable-background:new 0 0 499.399 499.399;" xml:space="preserve">
<g>
	<path d="M311.909,313.858l-9.805,27.84l6.67,24.772h35.931v-56.552c-10.842-0.26-21.362-0.98-31.486-2.188
		C313.03,309.798,312.611,311.856,311.909,313.858z"/>
	<path d="M414.973,366.471h7.583c16.298,0,30.832-10.284,36.239-25.659l21.027-59.677c-13.319,7.76-29.136,14.211-46.999,19.033
		L414.973,366.471z"/>
	<path d="M361.58,366.471h35.931l16.705-62.049c-16.36,3.165-34.01,5.052-52.636,5.497V366.471z"/>
	<path d="M415.103,123.524c-7.912,26.9-32.541,46.715-61.96,46.715c-29.421,0-54.052-19.817-61.96-46.719
		c-26.24,11.876-48.166,29.811-63.089,48.169c52.515,26.905,88.342,75.053,89.579,111.06c11.377,1.305,23.214,2.073,35.47,2.073
		c80.784,0,146.257-30.101,146.257-67.229C499.399,190.653,464.862,146.05,415.103,123.524z"/>
	<path d="M353.143,144.926c21.837,0,39.552-17.707,39.552-39.552c0-21.843-17.715-39.55-39.552-39.55
		c-21.836,0-39.551,17.708-39.551,39.55C313.592,127.219,331.307,144.926,353.143,144.926z"/>
	<path d="M101.904,433.576h35.931v-56.551c-18.626-0.445-36.273-2.331-52.635-5.495L101.904,433.576z"/>
	<path d="M19.577,348.24l21.027,59.677c5.406,15.375,19.939,25.659,36.24,25.659h7.598l-17.85-66.299
		C48.724,362.454,32.901,356.001,19.577,348.24z"/>
	<path d="M154.71,433.576h35.932l16.705-62.048c-16.361,3.165-34.01,5.052-52.637,5.497V433.576z"/>
	<path d="M208.105,433.576h7.581c16.298,0,30.832-10.283,36.254-25.659l21.021-59.681c-13.32,7.762-29.14,14.213-47.005,19.037
		L208.105,433.576z"/>
	<path d="M208.232,190.63c-7.911,26.899-32.539,46.715-61.96,46.715s-54.051-19.819-61.959-46.72C34.54,213.149,0,257.755,0,284.698
		c0,37.129,65.472,67.229,146.273,67.229c80.783,0,146.258-30.101,146.258-67.229C292.53,257.757,257.993,213.156,208.232,190.63z"
		/>
	<path d="M146.273,212.032c21.836,0,39.552-17.71,39.552-39.552c0-21.844-17.716-39.55-39.552-39.55
		c-21.835,0-39.55,17.706-39.55,39.55C106.723,194.323,124.438,212.032,146.273,212.032z"/>
</g>
<g>
</g>
<g>
</g>
<g>
</g>
<g>
</g>
<g>
</g>
<g>
</g>
<g>
</g>
<g>
</g>
<g>
</g>
<g>
</g>
<g>
</g>
<g>
</g>
<g>
</g>
<g>
</g>
<g>
</g>
</svg>
